<?xml version="1.0" encoding="UTF-8"?>
<svg xmlns="http://www.w3.org/2000/svg" xmlns:xlink="http://www.w3.org/1999/xlink" viewBox="0 0 64 64" width="64px" height="64px">
<g id="surface129560151">
<path style=" stroke:none;fill-rule:evenodd;fill:rgb(50.196081%,0%,97.254902%);fill-opacity:1;" d="M 49.007812 15.007812 C 44.492188 10.492188 38.492188 8 32.101562 8 C 18.929688 8 8.203125 18.71875 8.203125 31.890625 C 8.195312 36.101562 9.296875 40.210938 11.390625 43.835938 L 8 56.21875 L 20.671875 52.890625 C 24.15625 54.796875 28.09375 55.796875 32.09375 55.804688 L 32.101562 55.804688 C 45.273438 55.804688 55.992188 45.085938 56 31.90625 C 56 25.523438 53.515625 19.523438 49.007812 15.007812 Z M 32.101562 51.765625 L 32.09375 51.765625 C 28.53125 51.765625 25.03125 50.804688 21.984375 49 L 21.257812 48.570312 L 13.734375 50.539062 L 15.742188 43.210938 L 15.273438 42.460938 C 13.28125 39.296875 12.234375 35.640625 12.234375 31.890625 C 12.234375 20.945312 21.148438 12.039062 32.109375 12.039062 C 37.414062 12.039062 42.398438 14.109375 46.148438 17.859375 C 49.898438 21.617188 51.960938 26.601562 51.960938 31.90625 C 51.960938 42.859375 43.046875 51.765625 32.101562 51.765625 Z M 42.992188 36.890625 C 42.398438 36.59375 39.460938 35.148438 38.914062 34.953125 C 38.367188 34.75 37.96875 34.65625 37.570312 35.25 C 37.171875 35.851562 36.03125 37.195312 35.679688 37.59375 C 35.335938 37.984375 34.984375 38.039062 34.390625 37.742188 C 33.789062 37.445312 31.867188 36.8125 29.585938 34.773438 C 27.8125 33.195312 26.609375 31.234375 26.265625 30.640625 C 25.914062 30.039062 26.226562 29.71875 26.523438 29.421875 C 26.796875 29.15625 27.125 28.726562 27.421875 28.375 C 27.71875 28.03125 27.820312 27.78125 28.023438 27.382812 C 28.21875 26.984375 28.117188 26.632812 27.96875 26.335938 C 27.820312 26.039062 26.625 23.09375 26.125 21.898438 C 25.640625 20.734375 25.148438 20.898438 24.78125 20.875 C 24.4375 20.859375 24.039062 20.859375 23.640625 20.859375 C 23.242188 20.859375 22.59375 21.007812 22.046875 21.609375 C 21.5 22.203125 19.960938 23.648438 19.960938 26.585938 C 19.960938 29.523438 22.101562 32.367188 22.398438 32.765625 C 22.695312 33.15625 26.609375 39.1875 32.601562 41.773438 C 34.023438 42.390625 35.132812 42.757812 36 43.03125 C 37.429688 43.484375 38.734375 43.421875 39.765625 43.273438 C 40.914062 43.101562 43.296875 41.828125 43.796875 40.429688 C 44.289062 39.039062 44.289062 37.84375 44.140625 37.59375 C 43.992188 37.34375 43.59375 37.195312 42.992188 36.890625 Z M 42.992188 36.890625 "/>
</g>
</svg>
